# This file uses centimeters as units for non-parametric coordinates.

mtllib Planks.mtl
g default
v -34.038185 -1.897658 4.571256
v 33.767876 -1.897658 4.571256
v -34.038185 1.217869 4.571256
v 33.767876 1.217869 4.571256
v -34.038185 1.217869 -6.035880
v 33.767876 1.217869 -6.035880
v -34.038185 -1.897658 -6.035880
v 33.767876 -1.897658 -6.035880
vt 0.990775 0.944693
vt 0.021800 0.944719
vt 0.990775 0.919207
vt 0.021803 0.919256
vt 0.990766 0.782374
vt 0.021793 0.782429
vt 0.990765 0.756906
vt 0.021791 0.756961
vt 0.990757 0.620072
vt 0.021782 0.620129
vt 0.258974 0.439253
vt 0.258974 0.243923
vt 0.295330 0.243923
vt 0.295330 0.439253
vt 0.352699 0.440600
vt 0.352699 0.245271
vt 0.389055 0.245271
vt 0.389055 0.440600
vn 0.000000 0.000000 1.000000
vn 0.000000 0.000000 1.000000
vn 0.000000 0.000000 1.000000
vn 0.000000 0.000000 1.000000
vn 0.000000 1.000000 0.000000
vn 0.000000 1.000000 0.000000
vn 0.000000 1.000000 0.000000
vn 0.000000 1.000000 0.000000
vn 0.000000 0.000000 -1.000000
vn 0.000000 0.000000 -1.000000
vn 0.000000 0.000000 -1.000000
vn 0.000000 0.000000 -1.000000
vn 0.000000 -1.000000 0.000000
vn 0.000000 -1.000000 0.000000
vn 0.000000 -1.000000 0.000000
vn 0.000000 -1.000000 0.000000
vn 1.000000 0.000000 0.000000
vn 1.000000 0.000000 0.000000
vn 1.000000 0.000000 0.000000
vn 1.000000 0.000000 0.000000
vn -1.000000 0.000000 0.000000
vn -1.000000 0.000000 0.000000
vn -1.000000 0.000000 0.000000
vn -1.000000 0.000000 0.000000
s off
g Plank1
usemtl initialShadingGroup
f 1/1/1 2/2/2 4/4/3 3/3/4
f 3/3/5 4/4/6 6/6/7 5/5/8
f 5/5/9 6/6/10 8/8/11 7/7/12
f 7/7/13 8/8/14 2/10/15 1/9/16
f 2/11/17 8/12/18 6/13/19 4/14/20
f 7/15/21 1/16/22 3/17/23 5/18/24
