# This file uses centimeters as units for non-parametric coordinates.

mtllib Piller.mtl
g default
v -5.625865 10.374199 0.525477
v -5.691666 10.546198 -0.060008
v -5.703141 9.195738 -0.082006
v -5.644472 9.209717 0.644713
v -5.720278 7.927525 -0.104671
v -5.647706 7.914236 0.643428
v -5.606510 8.916573 0.606333
v -5.722337 8.899179 -0.090292
v -5.668578 7.606133 0.707017
v -5.712035 7.650356 -0.104528
v -5.719560 6.463470 -0.095238
v -5.680770 6.426104 0.664101
v -5.692600 4.369066 -0.089564
v -5.627423 4.400993 0.617490
v -5.715102 6.066022 0.625012
v -5.722735 6.046357 -0.086509
v -5.709865 2.543196 -0.092374
v -5.501332 2.575232 0.631140
v -5.670202 4.058077 0.673243
v -5.718139 4.063128 -0.092057
v -5.718690 1.387669 -0.095863
v -5.564075 1.398468 0.668553
v -5.455962 2.288863 0.713456
v -5.686577 2.334097 -0.109013
v -5.661357 0.307523 0.691901
v -5.464775 1.045118 0.598251
v -5.720139 1.043856 -0.078900
v -5.695841 0.316939 -0.107518
v -3.751283 9.324059 0.693469
v -3.786766 10.408876 0.654328
v -3.790347 7.946517 0.580491
v -3.765014 8.894538 0.660085
v -3.769206 6.390345 0.592841
v -3.751209 7.616450 0.608926
v -3.827787 4.450400 0.726251
v -3.821796 6.051493 0.621060
v -3.781114 2.665092 0.654544
v -3.752884 4.012516 0.581272
v -3.800922 1.440521 0.621570
v -3.790148 2.286314 0.613009
v -3.784595 0.327570 0.723231
v -3.887478 0.999196 0.658390
v -3.732166 10.426228 -0.067658
v -3.723610 9.320192 -0.098880
v -3.747863 7.874635 -0.114578
v -3.733090 8.921355 -0.112088
v -3.729759 7.651732 -0.102491
v -3.726213 6.422606 -0.101942
v -3.726902 6.025337 -0.108465
v -3.727751 4.429921 -0.087069
v -3.726796 4.012804 -0.093521
v -3.726850 2.668294 -0.108523
v -3.723285 2.254309 -0.106854
v -3.725257 1.303012 -0.080587
v -3.730057 0.321204 -0.105184
v -3.749170 1.004494 -0.101619
v -5.588987 9.042637 -0.101996
v -5.474653 9.073996 0.459584
v -4.035446 9.131679 0.382153
v -3.771293 9.108594 -0.107539
v -5.692986 7.827010 -0.106533
v -5.317990 7.742107 0.290328
v -3.992861 7.775309 0.374198
v -3.767413 7.791607 -0.111366
v -5.685827 6.233255 -0.091551
v -5.449883 6.221388 0.380048
v -3.899069 6.213357 0.498705
v -3.790771 6.209393 -0.111807
v -5.601981 4.202886 -0.098572
v -5.448028 4.228312 0.430159
v -3.976025 4.236595 0.450687
v -3.767081 4.216129 -0.093618
v -5.657643 2.474936 -0.111731
v -5.219872 2.423078 0.330127
v -3.994895 2.440867 0.410207
v -3.753722 2.435046 -0.109970
v -5.640245 1.238877 -0.096759
v -5.394519 1.248661 0.473264
v -3.976267 1.247627 0.482477
v -3.745525 1.156743 -0.092325
vt 0.139965 0.984496
vt 0.572222 0.981347
vt 0.572222 0.866010
vt 0.139965 0.886631
vt 0.572222 0.829423
vt 0.572222 0.745303
vt 0.146121 0.757617
vt 0.146121 0.837468
vt 0.141441 0.603459
vt 0.141441 0.703329
vt 0.572222 0.705394
vt 0.572222 0.604199
vt 0.572222 0.558443
vt 0.572222 0.407447
vt 0.138369 0.417861
vt 0.138369 0.559200
vt 0.572222 0.366635
vt 0.572222 0.235281
vt 0.146415 0.247994
vt 0.146415 0.368012
vt 0.572222 0.199412
vt 0.572222 0.121757
vt 0.154041 0.122348
vt 0.154041 0.194714
vt 0.572222 0.015749
vt 0.635609 0.015749
vt 0.149322 0.078264
vt 0.572222 0.083868
vt 0.572222 0.847370
vt 0.158019 0.861605
vt 0.572222 0.727917
vt 0.174430 0.731568
vt 0.572222 0.580022
vt 0.158429 0.580433
vt 0.572222 0.387280
vt 0.158198 0.391758
vt 0.572222 0.219011
vt 0.181093 0.220764
vt 0.572222 0.103470
vt 0.149322 0.101756
vt 0.911604 0.878183
vt 0.911604 0.977072
vt 0.916694 0.830113
vt 0.916694 0.742966
vt 0.920508 0.597781
vt 0.920508 0.708946
vt 0.909137 0.411265
vt 0.909137 0.559491
vt 0.920407 0.364723
vt 0.920407 0.242766
vt 0.919892 0.118328
vt 0.919892 0.198419
vt 0.906342 0.080078
vt 0.294002 0.015504
vt 0.935527 0.853585
vt 0.935151 0.727987
vt 0.920508 0.577203
vt 0.920407 0.388219
vt 0.933116 0.218058
vt 0.919892 0.099423
vt 0.980596 0.878183
vt 0.980596 0.977072
vt 0.980596 0.742966
vt 0.980596 0.830113
vt 0.980596 0.597781
vt 0.980596 0.708946
vt 0.980596 0.411265
vt 0.980596 0.559491
vt 0.980596 0.242766
vt 0.980596 0.364723
vt 0.980596 0.118328
vt 0.980596 0.198419
vt 0.980596 0.016677
vt 0.980596 0.080078
vt 0.980596 0.099423
vt 0.980596 0.218058
vt 0.980596 0.388219
vt 0.980596 0.577203
vt 0.980596 0.727987
vt 0.980596 0.853585
vt 0.294002 0.101756
vt 0.294002 0.078264
vt 0.278693 0.220764
vt 0.297190 0.194714
vt 0.291374 0.391758
vt 0.301172 0.368012
vt 0.291374 0.580433
vt 0.291374 0.559200
vt 0.277883 0.731568
vt 0.300037 0.703329
vt 0.276857 0.861605
vt 0.297575 0.837468
vt 0.297190 0.122348
vt 0.301172 0.247994
vt 0.291374 0.417861
vt 0.300037 0.603459
vt 0.297575 0.757617
vt 0.301811 0.886631
vt 0.906342 0.016677
vt 0.301811 0.984496
vt 0.635609 0.103470
vt 0.635609 0.083868
vt 0.620453 0.219011
vt 0.641145 0.199412
vt 0.619590 0.387280
vt 0.638149 0.366635
vt 0.612868 0.580022
vt 0.634343 0.558443
vt 0.608513 0.727917
vt 0.636855 0.705394
vt 0.620538 0.847370
vt 0.632852 0.829423
vt 0.641145 0.121757
vt 0.638149 0.235281
vt 0.634343 0.407447
vt 0.636855 0.604199
vt 0.632852 0.745303
vt 0.631231 0.866010
vt 0.149322 0.015504
vt 0.631231 0.981347
vn -0.995231 0.015627 0.096286
vn -0.995231 0.015627 0.096286
vn -0.995231 0.015627 0.096286
vn -0.995231 0.015627 0.096286
vn -0.991390 0.021143 0.129222
vn -0.991390 0.021143 0.129222
vn -0.991390 0.021143 0.129222
vn -0.991390 0.021143 0.129222
vn -0.998583 0.007569 0.052676
vn -0.998583 0.007569 0.052676
vn -0.998583 0.007569 0.052676
vn -0.998583 0.007569 0.052676
vn -0.997995 -0.035344 0.052509
vn -0.997995 -0.035344 0.052509
vn -0.997995 -0.035344 0.052509
vn -0.997995 -0.035344 0.052509
vn -0.983500 -0.060429 0.170517
vn -0.983500 -0.060429 0.170517
vn -0.983500 -0.060429 0.170517
vn -0.983500 -0.060429 0.170517
vn -0.969051 0.069886 0.236762
vn -0.969051 0.069886 0.236761
vn -0.969051 0.069886 0.236761
vn -0.969051 0.069886 0.236762
vn -0.973686 0.123061 0.191812
vn -0.973686 0.123061 0.191812
vn -0.973686 0.123061 0.191812
vn -0.973686 0.123061 0.191812
vn -0.666112 -0.736873 0.115382
vn -0.666112 -0.736873 0.115382
vn -0.987667 0.004288 0.156514
vn -0.984947 -0.072115 0.157097
vn -0.517198 -0.845993 0.129622
vn -0.517198 -0.845993 0.129622
vn -0.928356 -0.123024 0.350742
vn -0.918096 0.143857 0.369331
vn -0.796712 -0.584291 0.154449
vn -0.796712 -0.584291 0.154449
vn -0.981321 0.000472 0.192380
vn -0.981316 -0.003748 0.192366
vn -0.724889 -0.670113 0.159639
vn -0.724889 -0.670113 0.159639
vn -0.969738 0.173546 0.171724
vn -0.975604 0.133383 0.174374
vn -0.395530 -0.895482 0.204125
vn -0.395530 -0.895482 0.204125
vn -0.849668 -0.147432 0.506289
vn -0.848132 0.121636 0.515632
vn -0.677646 -0.703516 0.214150
vn -0.677646 -0.703516 0.214150
vn -0.926570 -0.173087 0.333930
vn -0.927634 -0.165728 0.334707
vn -0.050196 0.069775 0.996299
vn -0.050196 0.069775 0.996299
vn -0.050196 0.069775 0.996299
vn -0.050196 0.069775 0.996299
vn 0.002543 -0.021872 0.999758
vn 0.002543 -0.021872 0.999758
vn 0.002543 -0.021872 0.999758
vn 0.002543 -0.021872 0.999758
vn 0.044006 -0.025042 0.998717
vn 0.044006 -0.025042 0.998717
vn 0.044006 -0.025042 0.998717
vn 0.044006 -0.025042 0.998717
vn -0.028633 0.029163 0.999165
vn -0.028633 0.029163 0.999165
vn -0.028633 0.029163 0.999165
vn -0.028633 0.029163 0.999165
vn 0.018700 0.011939 0.999754
vn 0.018700 0.011939 0.999754
vn 0.018700 0.011939 0.999754
vn 0.018700 0.011939 0.999754
vn 0.043218 -0.023866 0.998781
vn 0.043218 -0.023866 0.998781
vn 0.043218 -0.023866 0.998781
vn 0.043218 -0.023866 0.998781
vn -0.025453 0.113398 0.993224
vn -0.025453 0.113398 0.993224
vn -0.025453 0.113398 0.993224
vn -0.025453 0.113398 0.993224
vn 0.047950 -0.838347 0.543024
vn 0.047950 -0.838347 0.543024
vn 0.037617 -0.120675 0.991979
vn 0.037844 -0.127934 0.991060
vn 0.014050 -0.850761 0.525365
vn 0.014050 -0.850761 0.525365
vn 0.002598 0.153986 0.988070
vn 0.002364 0.170277 0.985394
vn -0.018620 -0.706191 0.707777
vn -0.018620 -0.706191 0.707777
vn -0.025967 0.025784 0.999330
vn -0.025955 -0.060544 0.997828
vn -0.011766 -0.767953 0.640398
vn -0.011766 -0.767953 0.640398
vn 0.007408 -0.087870 0.996104
vn 0.008960 -0.022517 0.999706
vn 0.010072 -0.822391 0.568834
vn 0.010072 -0.822391 0.568834
vn 0.008959 -0.022965 0.999696
vn 0.008336 0.074735 0.997169
vn 0.017499 -0.698409 0.715485
vn 0.017499 -0.698409 0.715485
vn 0.005278 -0.130353 0.991454
vn 0.005412 -0.136337 0.990648
vn 0.998313 0.020264 0.054418
vn 0.998313 0.020264 0.054418
vn 0.998313 0.020264 0.054418
vn 0.998313 0.020264 0.054418
vn 0.998436 -0.022186 0.051314
vn 0.998436 -0.022186 0.051314
vn 0.998436 -0.022186 0.051314
vn 0.998436 -0.022186 0.051314
vn 0.998946 -0.006167 0.045483
vn 0.998946 -0.006167 0.045483
vn 0.998946 -0.006167 0.045483
vn 0.998946 -0.006167 0.045483
vn 0.992119 0.002838 0.125264
vn 0.992119 0.002838 0.125264
vn 0.992119 0.002838 0.125264
vn 0.992119 0.002838 0.125264
vn 0.998400 -0.009283 0.055772
vn 0.998400 -0.009283 0.055772
vn 0.998400 -0.009283 0.055772
vn 0.998400 -0.009283 0.055772
vn 0.994941 -0.005113 0.100331
vn 0.994941 -0.005113 0.100331
vn 0.994941 -0.005113 0.100331
vn 0.994941 -0.005113 0.100331
vn 0.988284 0.094408 0.119921
vn 0.988284 0.094408 0.119921
vn 0.988284 0.094408 0.119921
vn 0.988284 0.094408 0.119921
vn 0.769168 -0.571119 0.286711
vn 0.769168 -0.571119 0.286711
vn 0.949111 -0.123213 0.289839
vn 0.956008 -0.066767 0.285640
vn 0.822912 -0.535264 0.190549
vn 0.822912 -0.535264 0.190549
vn 0.974416 -0.034308 0.222119
vn 0.974844 -0.018451 0.222124
vn 0.838801 -0.503921 0.206101
vn 0.838801 -0.503921 0.206101
vn 0.974423 -0.070132 0.213497
vn 0.977461 0.028430 0.209192
vn 0.881232 -0.463628 0.092089
vn 0.881232 -0.463628 0.092089
vn 0.992074 -0.029897 0.122049
vn 0.991432 -0.048534 0.121274
vn 0.662456 -0.726019 0.184519
vn 0.662456 -0.726019 0.184519
vn 0.958843 0.124886 0.254997
vn 0.963603 0.074357 0.256788
vn 0.690103 -0.703008 0.171865
vn 0.690103 -0.703008 0.171865
vn 0.969538 -0.066538 0.235730
vn 0.971728 -0.009566 0.235907
vn -0.718062 0.688060 0.104693
vn -0.718062 0.688060 0.104693
vn -0.003039 0.732111 0.681179
vn -0.003039 0.732111 0.681179
vn 0.739052 0.650431 0.175332
vn 0.739052 0.650431 0.175332
vn -0.447453 0.859579 0.246798
vn -0.447453 0.859579 0.246798
vn -0.010433 0.911637 0.410865
vn -0.010433 0.911637 0.410865
vn 0.649224 0.742284 0.165900
vn 0.649223 0.742284 0.165900
vn -0.690599 0.710048 0.137498
vn -0.690599 0.710048 0.137498
vn -0.016619 0.760908 0.648647
vn -0.016619 0.760908 0.648647
vn 0.901310 0.414029 0.127361
vn 0.901310 0.414029 0.127361
vn -0.637173 0.765755 0.087351
vn -0.637173 0.765755 0.087351
vn 0.022859 0.687698 0.725637
vn 0.022859 0.687698 0.725637
vn 0.820766 0.551461 0.149110
vn 0.820766 0.551461 0.149110
vn -0.442363 0.845600 0.298792
vn -0.442363 0.845600 0.298792
vn -0.001616 0.897077 0.441872
vn -0.001616 0.897077 0.441872
vn 0.755415 0.633256 0.168333
vn 0.755415 0.633256 0.168333
vn -0.837063 0.434501 0.332467
vn -0.837063 0.434501 0.332467
vn -0.010594 0.553836 0.832559
vn -0.010594 0.553836 0.832559
vn 0.925573 0.295225 0.236974
vn 0.925573 0.295225 0.236974
s off
g initialShadingGroup polySurface1
f 1/120/1 2/2/2 3/3/3 4/118/4
f 8/5/5 5/6/6 6/117/7 7/112/8
f 12/116/9 9/110/10 10/11/11 11/12/12
f 16/13/13 13/14/14 14/115/15 15/108/16
f 20/17/17 17/18/18 18/114/19 19/106/20
f 24/21/21 21/22/22 22/113/23 23/104/24
f 28/25/25 25/26/26 26/102/27 27/28/28
s 1
f 4/118/29 3/3/30 57/29/31 58/111/32
s 2
f 6/117/33 5/6/34 61/31/35 62/109/36
s 3
f 12/116/37 11/12/38 65/33/39 66/107/40
s 4
f 14/115/41 13/14/42 69/35/43 70/105/44
s 5
f 18/114/45 17/18/46 73/37/47 74/103/48
s 6
f 22/113/49 21/22/50 77/39/51 78/101/52
s off
f 4/4/53 29/98/54 30/100/55 1/1/56
f 32/92/57 7/8/58 6/7/59 31/97/60
f 12/9/61 33/96/62 34/90/63 9/10/64
f 14/15/65 35/95/66 36/88/67 15/16/68
f 38/86/69 19/20/70 18/19/71 37/94/72
f 22/23/73 39/93/74 40/84/75 23/24/76
f 42/82/77 26/27/78 25/119/79 41/54/80
s 7
f 29/98/81 4/4/82 58/30/83 59/91/84
s 8
f 31/97/85 6/7/86 62/32/87 63/89/88
s 9
f 33/96/89 12/9/90 66/34/91 67/87/92
s 10
f 35/95/93 14/15/94 70/36/95 71/85/96
s 11
f 37/94/97 18/19/98 74/38/99 75/83/100
s 12
f 39/93/101 22/23/102 78/40/103 79/81/104
s off
f 44/61/105 43/62/106 30/42/107 29/41/108
f 32/43/109 31/44/110 45/63/111 46/64/112
f 48/65/113 47/66/114 34/46/115 33/45/116
f 50/67/117 49/68/118 36/48/119 35/47/120
f 52/69/121 51/70/122 38/49/123 37/50/124
f 54/71/125 53/72/126 40/52/127 39/51/128
f 41/99/129 55/73/130 56/74/131 42/53/132
s 13
f 54/71/133 39/51/134 79/60/135 80/75/136
s 14
f 52/69/137 37/50/138 75/59/139 76/76/140
s 15
f 50/67/141 35/47/142 71/58/143 72/77/144
s 16
f 48/65/145 33/45/146 67/57/147 68/78/148
s 17
f 45/63/149 31/44/150 63/56/151 64/79/152
s 18
f 44/61/153 29/41/154 59/55/155 60/80/156
s 1
f 58/111/32 57/29/31 8/5/157 7/112/158
s 7
f 59/91/84 58/30/83 7/8/159 32/92/160
s 18
f 60/80/156 59/55/155 32/43/161 46/64/162
s 2
f 62/109/36 61/31/35 10/11/163 9/110/164
s 8
f 63/89/88 62/32/87 9/10/165 34/90/166
s 17
f 64/79/152 63/56/151 34/46/167 47/66/168
s 3
f 66/107/40 65/33/39 16/13/169 15/108/170
s 9
f 67/87/92 66/34/91 15/16/171 36/88/172
s 16
f 68/78/148 67/57/147 36/48/173 49/68/174
s 4
f 70/105/44 69/35/43 20/17/175 19/106/176
s 10
f 71/85/96 70/36/95 19/20/177 38/86/178
s 15
f 72/77/144 71/58/143 38/49/179 51/70/180
s 5
f 74/103/48 73/37/47 24/21/181 23/104/182
s 11
f 75/83/100 74/38/99 23/24/183 40/84/184
s 14
f 76/76/140 75/59/139 40/52/185 53/72/186
s 6
f 78/101/52 77/39/51 27/28/187 26/102/188
s 12
f 79/81/104 78/40/103 26/27/189 42/82/190
s 13
f 80/75/136 79/60/135 42/53/191 56/74/192
