# This file uses centimeters as units for non-parametric coordinates.

mtllib Cube_Aztec.mtl
g default
v -11.919132 21.591551 -10.095925
v -11.733009 1.574715 -10.676508
v -11.080064 1.738683 10.598163
v -11.040427 21.880482 10.807178
v -9.734966 21.632555 11.816884
v -10.054113 2.660163 11.949492
v 10.514980 1.318712 11.496723
v 10.437537 21.583168 10.823208
v 12.058698 21.571573 9.964102
v 11.430750 1.808509 8.011228
v 12.206919 21.695061 -10.507557
v 11.299544 2.137900 -11.111804
v 9.825786 21.382214 -12.052823
v 9.742530 2.327804 -12.353322
v -10.305190 22.065069 -11.223030
v -10.623920 2.581152 -12.295480
v -9.881798 23.771032 -8.366594
v -9.059057 23.717041 -9.588528
v -7.828634 23.515697 9.570106
v -9.037580 23.359734 8.270781
v 9.952257 23.480747 7.817444
v 8.487014 23.421858 8.983424
v 8.834928 23.738089 -9.981727
v 9.741590 23.787537 -8.025591
v 9.682676 0.082346 -9.502322
v 8.551350 -0.094429 -10.549679
v -9.090226 -0.290969 -11.025229
v -9.854492 -0.275581 -9.610337
v -9.464161 -0.213315 8.934227
v -8.096063 -0.191385 10.221267
v 9.774162 -0.196356 8.137768
v 8.602497 0.115644 10.072296
vt 0.788261 0.620643
vt 0.615144 0.808397
vt 0.422524 0.617268
vt 0.600082 0.431716
vt 0.415239 0.593751
vt 0.582840 0.419261
vt 0.217058 0.421004
vt 0.399749 0.238176
vt 0.190144 0.383241
vt 0.384290 0.220621
vt 0.018953 0.209653
vt 0.199051 0.036947
vt 0.002045 0.190576
vt 0.996353 0.811741
vt 0.641985 0.816733
vt 0.810574 0.633620
vt 0.594001 0.366495
vt 0.627621 0.340720
vt 0.642625 0.353637
vt 0.624598 0.391852
vt 0.882967 0.343175
vt 0.917382 0.361339
vt 0.894532 0.399704
vt 0.872930 0.360307
vt 0.914292 0.072978
vt 0.881618 0.098350
vt 0.864523 0.082324
vt 0.894520 0.040363
vt 0.641657 0.079149
vt 0.625042 0.104918
vt 0.587877 0.105272
vt 0.616362 0.053843
vt 0.077735 0.609114
vt 0.105841 0.650625
vt 0.089117 0.662692
vt 0.055619 0.642986
vt 0.407904 0.636651
vt 0.366498 0.668066
vt 0.347197 0.651598
vt 0.384434 0.615189
vt 0.388011 0.965759
vt 0.352886 0.927083
vt 0.368573 0.905972
vt 0.407026 0.935791
vt 0.122298 0.933647
vt 0.086090 0.981516
vt 0.049112 0.941331
vt 0.094040 0.922278
vt 0.169889 0.015209
vt 0.833559 0.992446
vn -0.999330 -0.004360 0.036337
vn -0.999330 -0.004360 0.036337
vn -0.999330 -0.004360 0.036337
vn -0.999330 -0.004360 0.036337
vn -0.712284 0.005163 0.701873
vn -0.712284 0.005163 0.701873
vn -0.712283 0.005163 0.701873
vn -0.712284 0.005163 0.701873
vn 0.036166 0.020305 0.999140
vn 0.036166 0.020305 0.999140
vn 0.036166 0.020305 0.999140
vn 0.036166 0.020305 0.999140
vn 0.864554 -0.027928 0.501763
vn 0.864554 -0.027928 0.501763
vn 0.864554 -0.027928 0.501763
vn 0.864554 -0.027928 0.501763
vn 0.999239 -0.039016 -0.000017
vn 0.999239 -0.039016 -0.000017
vn 0.999239 -0.039016 -0.000017
vn 0.999239 -0.039016 -0.000017
vn 0.577544 0.004311 -0.816348
vn 0.577544 0.004311 -0.816348
vn 0.577544 0.004311 -0.816348
vn 0.577544 0.004311 -0.816348
vn -0.021071 0.035815 -0.999136
vn -0.021071 0.035815 -0.999136
vn -0.021071 0.035815 -0.999136
vn -0.021071 0.035815 -0.999136
vn -0.718164 0.031502 -0.695160
vn -0.718164 0.031502 -0.695160
vn -0.718164 0.031502 -0.695160
vn -0.718164 0.031502 -0.695160
vn -0.505118 0.771863 -0.386113
vn -0.505118 0.771863 -0.386113
vn -0.505118 0.771863 -0.386113
vn -0.505118 0.771863 -0.386113
vn -0.305547 0.878314 0.367704
vn -0.305547 0.878314 0.367704
vn -0.305547 0.878314 0.367704
vn -0.305547 0.878314 0.367704
vn 0.298663 0.828026 0.474525
vn 0.298662 0.828026 0.474525
vn 0.298663 0.828026 0.474525
vn 0.298663 0.828026 0.474525
vn 0.405594 0.788448 -0.462433
vn 0.405594 0.788448 -0.462433
vn 0.405594 0.788448 -0.462433
vn 0.405594 0.788448 -0.462433
vn -0.011780 0.679235 -0.733826
vn -0.011780 0.679235 -0.733826
vn -0.011780 0.679235 -0.733826
vn -0.011780 0.679235 -0.733826
vn -0.667247 0.744103 0.033049
vn -0.667247 0.744103 0.033049
vn -0.667247 0.744103 0.033049
vn -0.667247 0.744103 0.033049
vn 0.032042 0.739123 0.672808
vn 0.032042 0.739123 0.672808
vn 0.032042 0.739123 0.672808
vn 0.032042 0.739123 0.672808
vn 0.658934 0.752161 0.007779
vn 0.658934 0.752161 0.007779
vn 0.658934 0.752161 0.007779
vn 0.658934 0.752161 0.007779
vn 0.003485 0.999794 0.019999
vn 0.003485 0.999794 0.019999
vn 0.003485 0.999794 0.019999
vn 0.003485 0.999794 0.019999
vn 0.004114 0.999754 0.021798
vn 0.004114 0.999754 0.021798
vn 0.004114 0.999754 0.021798
vn 0.004114 0.999754 0.021798
vn -0.049493 0.998299 -0.030826
vn -0.049493 0.998299 -0.030826
vn -0.049493 0.998299 -0.030826
vn -0.049493 0.998299 -0.030826
vn 0.459402 -0.702452 -0.543609
vn 0.459402 -0.702452 -0.543609
vn 0.459402 -0.702452 -0.543609
vn 0.459402 -0.702452 -0.543609
vn -0.531489 -0.651730 -0.541080
vn -0.531489 -0.651730 -0.541080
vn -0.531489 -0.651730 -0.541080
vn -0.531489 -0.651730 -0.541080
vn 0.008757 -0.501662 -0.865019
vn 0.008757 -0.501662 -0.865019
vn 0.008757 -0.501662 -0.865019
vn 0.008757 -0.501662 -0.865019
vn -0.380788 -0.705452 0.597777
vn -0.380788 -0.705453 0.597777
vn -0.380788 -0.705452 0.597777
vn -0.380788 -0.705452 0.597777
vn -0.734279 -0.678455 0.023093
vn -0.734279 -0.678455 0.023093
vn -0.734279 -0.678455 0.023093
vn -0.734279 -0.678455 0.023093
vn 0.610239 -0.763887 0.209965
vn 0.610239 -0.763887 0.209965
vn 0.610239 -0.763887 0.209965
vn 0.610239 -0.763887 0.209965
vn -0.004292 -0.613851 0.789410
vn -0.004292 -0.613851 0.789410
vn -0.004292 -0.613851 0.789410
vn -0.004292 -0.613851 0.789410
vn 0.775252 -0.631471 -0.015141
vn 0.775252 -0.631471 -0.015141
vn 0.775252 -0.631471 -0.015141
vn 0.775252 -0.631471 -0.015141
vn 0.020432 -0.999768 -0.006790
vn 0.020432 -0.999768 -0.006790
vn 0.020432 -0.999768 -0.006790
vn 0.020432 -0.999768 -0.006790
vn 0.018038 -0.999834 0.002645
vn 0.018038 -0.999834 0.002645
vn 0.018038 -0.999834 0.002645
vn 0.018038 -0.999834 0.002645
vn -0.055191 -0.996326 0.065486
vn -0.055191 -0.996326 0.065486
vn -0.055191 -0.996326 0.065486
vn -0.055191 -0.996326 0.065486
s off
g Cube_Aztec
usemtl initialShadingGroup
f 1/1/1 2/2/2 3/3/3 4/4/4
f 6/5/5 5/6/6 4/4/7 3/3/8
f 6/5/9 7/7/10 8/8/11 5/6/12
f 10/9/13 9/10/14 8/8/15 7/7/16
f 12/11/17 11/12/18 9/10/19 10/9/20
f 14/13/21 13/49/22 11/12/23 12/11/24
f 16/15/25 15/16/26 13/14/27 14/50/28
f 2/2/29 1/1/30 15/16/31 16/15/32
f 1/33/33 17/34/34 18/35/35 15/36/36
f 5/37/37 19/38/38 20/39/39 4/40/40
f 9/41/41 21/42/42 22/43/43 8/44/44
f 24/45/45 11/46/46 13/47/47 23/48/48
f 18/35/49 23/48/50 13/47/51 15/36/52
f 20/39/53 17/34/54 1/33/55 4/40/56
f 22/43/57 19/38/58 5/37/59 8/44/60
f 24/45/61 21/42/62 9/41/63 11/46/64
f 17/34/65 20/39/66 23/48/67 18/35/68
f 19/38/69 22/43/70 21/42/71 24/45/72
f 23/48/73 20/39/74 19/38/75 24/45/76
f 12/17/77 25/18/78 26/19/79 14/20/80
f 28/21/81 2/22/82 16/23/83 27/24/84
f 26/19/85 27/24/86 16/23/87 14/20/88
f 3/25/89 29/26/90 30/27/91 6/28/92
f 3/25/93 2/22/94 28/21/95 29/26/96
f 32/29/97 31/30/98 10/31/99 7/32/100
f 30/27/101 32/29/102 7/32/103 6/28/104
f 31/30/105 25/18/106 12/17/107 10/31/108
f 27/24/109 26/19/110 25/18/111 31/30/112
f 32/29/113 30/27/114 29/26/115 28/21/116
f 27/24/117 31/30/118 32/29/119 28/21/120
